<svg width="200" height="200" viewBox="0 0 200 200" xmlns="http://www.w3.org/2000/svg">
  <defs>
    <linearGradient id="avatarGradient" x1="0%" y1="0%" x2="100%" y2="100%">
      <stop offset="0%" style="stop-color:#667eea;stop-opacity:1" />
      <stop offset="100%" style="stop-color:#764ba2;stop-opacity:1" />
    </linearGradient>
    <linearGradient id="faceGradient" x1="0%" y1="0%" x2="100%" y2="100%">
      <stop offset="0%" style="stop-color:#ffeaa7;stop-opacity:1" />
      <stop offset="100%" style="stop-color:#fab1a0;stop-opacity:1" />
    </linearGradient>
  </defs>
  
  <!-- 背景圆 -->
  <circle cx="100" cy="100" r="95" fill="url(#avatarGradient)" stroke="#fff" stroke-width="5"/>
  
  <!-- 头部 -->
  <circle cx="100" cy="85" r="35" fill="url(#faceGradient)"/>
  
  <!-- 眼睛 -->
  <circle cx="90" cy="80" r="3" fill="#2d3436"/>
  <circle cx="110" cy="80" r="3" fill="#2d3436"/>
  
  <!-- 鼻子 -->
  <ellipse cx="100" cy="88" rx="1.5" ry="2" fill="#e17055"/>
  
  <!-- 嘴巴 -->
  <path d="M 95 95 Q 100 100 105 95" stroke="#2d3436" stroke-width="2" fill="none" stroke-linecap="round"/>
  
  <!-- 头发 -->
  <path d="M 70 70 Q 100 50 130 70 Q 125 65 120 68 Q 115 60 110 65 Q 105 58 100 62 Q 95 58 90 65 Q 85 60 80 68 Q 75 65 70 70" fill="#2d3436"/>
  
  <!-- 身体 -->
  <rect x="75" y="115" width="50" height="60" rx="25" fill="#74b9ff"/>
  
  <!-- 衣领 -->
  <rect x="85" y="115" width="30" height="15" fill="#0984e3"/>
  
  <!-- 装饰元素 -->
  <circle cx="60" cy="60" r="3" fill="#fdcb6e" opacity="0.7"/>
  <circle cx="140" cy="140" r="4" fill="#e84393" opacity="0.6"/>
  <circle cx="160" cy="80" r="2" fill="#00b894" opacity="0.8"/>
  <circle cx="40" cy="120" r="2.5" fill="#fd79a8" opacity="0.7"/>
</svg>