<svg width="300" height="200" viewBox="0 0 300 200" xmlns="http://www.w3.org/2000/svg">
  <defs>
    <linearGradient id="bgGradient3" x1="0%" y1="0%" x2="100%" y2="100%">
      <stop offset="0%" style="stop-color:#fd79a8;stop-opacity:1" />
      <stop offset="100%" style="stop-color:#fdcb6e;stop-opacity:1" />
    </linearGradient>
  </defs>
  
  <!-- 背景 -->
  <rect width="300" height="200" fill="url(#bgGradient3)" rx="15"/>
  
  <!-- 仪表板界面 -->
  <rect x="20" y="20" width="260" height="160" fill="#ffffff" rx="10" stroke="#ddd" stroke-width="2"/>
  
  <!-- 顶部导航 -->
  <rect x="20" y="20" width="260" height="25" fill="#2d3436" rx="10 10 0 0"/>
  <circle cx="35" cy="32.5" r="3" fill="#ff6b6b"/>
  <circle cx="45" cy="32.5" r="3" fill="#feca57"/>
  <circle cx="55" cy="32.5" r="3" fill="#48dbfb"/>
  
  <!-- 图表区域 -->
  <!-- 柱状图 -->
  <g transform="translate(40, 60)">
    <rect x="0" y="40" width="8" height="40" fill="#74b9ff"/>
    <rect x="12" y="30" width="8" height="50" fill="#00b894"/>
    <rect x="24" y="50" width="8" height="30" fill="#fd79a8"/>
    <rect x="36" y="20" width="8" height="60" fill="#fdcb6e"/>
    <rect x="48" y="35" width="8" height="45" fill="#e84393"/>
    <line x1="0" y1="85" x2="60" y2="85" stroke="#6c757d" stroke-width="1"/>
    <line x1="0" y1="85" x2="0" y2="15" stroke="#6c757d" stroke-width="1"/>
  </g>
  
  <!-- 饼图 -->
  <g transform="translate(180, 90)">
    <circle cx="0" cy="0" r="25" fill="#74b9ff"/>
    <path d="M 0 -25 A 25 25 0 0 1 17.68 -17.68 L 0 0 Z" fill="#00b894"/>
    <path d="M 17.68 -17.68 A 25 25 0 0 1 17.68 17.68 L 0 0 Z" fill="#fd79a8"/>
    <path d="M 17.68 17.68 A 25 25 0 0 1 -17.68 17.68 L 0 0 Z" fill="#fdcb6e"/>
  </g>
  
  <!-- 折线图 -->
  <g transform="translate(40, 120)">
    <polyline points="0,30 15,20 30,35 45,15 60,25" stroke="#e84393" stroke-width="3" fill="none"/>
    <polyline points="0,40 15,35 30,45 45,30 60,40" stroke="#00b894" stroke-width="3" fill="none"/>
    <circle cx="0" cy="30" r="2" fill="#e84393"/>
    <circle cx="15" cy="20" r="2" fill="#e84393"/>
    <circle cx="30" cy="35" r="2" fill="#e84393"/>
    <circle cx="45" cy="15" r="2" fill="#e84393"/>
    <circle cx="60" cy="25" r="2" fill="#e84393"/>
  </g>
  
  <!-- 数据卡片 -->
  <rect x="220" y="60" width="50" height="30" fill="#e3f2fd" rx="5"/>
  <rect x="225" y="65" width="20" height="3" fill="#2196f3" rx="1"/>
  <rect x="225" y="70" width="30" height="3" fill="#757575" rx="1"/>
  <rect x="225" y="75" width="25" height="3" fill="#4caf50" rx="1"/>
  <text x="250" y="85" font-family="Arial" font-size="8" fill="#2196f3">↗ 24%</text>
</svg>